<svg width="24" height="24" viewBox="0 0 24 24" fill="none" xmlns="http://www.w3.org/2000/svg">
<path d="M4.65021 9.34997L2.70021 11.3C2.31021 11.69 2.31021 12.32 2.70021 12.71L4.65021 14.66C5.14021 15.15 5.93021 15.15 6.42021 14.66C6.90021 14.17 6.90021 13.39 6.42021 12.9L5.54021 12L6.42021 11.11C6.90021 10.62 6.90021 9.83997 6.42021 9.34997C5.94021 8.85997 5.14021 8.85997 4.65021 9.34997ZM17.5802 9.34997C17.1002 9.83997 17.1002 10.62 17.5802 11.11L18.4602 12L17.5802 12.89C17.1002 13.38 17.1002 14.16 17.5802 14.65C18.0702 15.14 18.8602 15.14 19.3502 14.65L21.3002 12.7C21.6902 12.31 21.6902 11.68 21.3002 11.29L19.3502 9.33997C18.8602 8.85997 18.0602 8.85997 17.5802 9.34997ZM12.0002 18.46L11.1102 17.58C10.6202 17.1 9.84021 17.1 9.35021 17.58C8.86021 18.07 8.86021 18.86 9.35021 19.35L11.3002 21.3C11.6902 21.69 12.3202 21.69 12.7102 21.3L14.6602 19.35C15.1502 18.86 15.1502 18.07 14.6602 17.58C14.1702 17.1 13.3902 17.1 12.9002 17.58L12.0002 18.46ZM9.35021 6.41997C9.84021 6.89997 10.6202 6.89997 11.1102 6.41997L12.0002 5.53997L12.8902 6.41997C13.3802 6.89997 14.1602 6.89997 14.6502 6.41997C15.1402 5.92997 15.1402 5.13997 14.6502 4.64997L12.7002 2.69997C12.3102 2.30997 11.6802 2.30997 11.2902 2.69997L9.35021 4.64997C8.86021 5.13997 8.86021 5.93997 9.35021 6.41997Z" fill="black"/>
<path d="M12 15C13.6569 15 15 13.6569 15 12C15 10.3431 13.6569 9 12 9C10.3431 9 9 10.3431 9 12C9 13.6569 10.3431 15 12 15Z" fill="black"/>
</svg>
