<svg width="11" height="21" viewBox="0 0 11 21" fill="none" xmlns="http://www.w3.org/2000/svg">
<path d="M4.78194 0.0267805C4.01814 0.154769 3.33691 0.815355 3.17589 1.58329C3.01075 2.37599 3.36581 3.22236 4.04291 3.65587C5.13701 4.36187 6.63158 3.82515 7.01142 2.58655C7.11464 2.26451 7.11876 1.73605 7.02793 1.42227C6.75131 0.476805 5.76043 -0.138366 4.78194 0.0267805Z" fill="white"/>
<path d="M4.28622 4.51872C3.97657 4.61368 3.74124 4.82837 3.56784 5.17517C3.34489 5.62933 3.32425 6.01329 3.47701 7.06197C3.73298 8.80014 3.78666 10.0263 3.65041 10.9388C3.57197 11.4714 3.56784 11.7274 3.62977 11.9792C3.68344 12.1939 3.88161 12.3838 4.10869 12.4457C4.32338 12.5035 5.12021 12.5572 6.86664 12.6357C7.68411 12.6728 8.41901 12.7182 8.49746 12.7306L8.89381 13.2916L8.91032 15.1541C8.93151 17.1849 8.84481 19.5595 8.93151 19.7412C9.04298 19.96 9.18336 20.0921 9.44346 20.2325C9.57558 20.3027 9.68292 20.3233 9.92239 20.3233C10.2857 20.3233 10.4839 20.2366 10.7192 19.9765C10.9215 19.7536 11 19.5471 11 19.2499C11.0041 18.9444 10.7434 11.5829 10.6856 11.3558C10.6113 11.0833 10.3925 10.8232 10.1241 10.6911C9.9012 10.5837 9.84753 10.5755 8.89381 10.5259C8.34882 10.497 7.67172 10.4599 7.3951 10.4475L6.89141 10.4186L6.91205 10.2287C6.92444 10.1213 6.94095 10.0098 6.95334 9.98093C6.96572 9.94378 6.50744 9.93482 10.6031 9.93482H8.33231L6.95334 9.98093L9.2819 9.93482H9.94249H10.6031V9.50131V9.0678L9.83927 9.0685L9.71541 9.26255C9.63697 9.38228 9.52549 9.48962 9.40989 9.54742L9.22823 9.64238H7.32492C5.42986 9.64238 5.4216 9.64238 5.26059 9.54742C4.93442 9.36163 4.89726 9.27906 4.47201 7.78449C4.25732 7.02481 4.07979 6.34358 4.07979 6.27752C4.07979 5.92659 4.31925 5.57152 4.63716 5.44766C5.03764 5.2949 5.52069 5.46418 5.71887 5.82337C5.76841 5.9142 5.89227 6.29404 5.99962 6.66975C6.10283 7.04546 6.22669 7.47484 6.27211 7.6276L6.35468 7.90835H6.63956C6.85425 7.90835 6.92857 7.89183 6.92857 7.85467C6.92857 7.72256 6.75516 6.85967 6.63956 6.42203C6.36707 5.38986 5.91704 4.82011 5.16563 4.56826C4.90552 4.48156 4.48853 4.45679 4.28622 4.51872Z" fill="white"/>
<path d="M4.65806 5.64584C4.55485 5.69951 4.43099 5.80273 4.38144 5.87704C4.20391 6.14541 4.21217 6.21559 4.61678 7.63998C4.81908 8.36662 5.01313 9.01895 5.04616 9.09327C5.07919 9.16346 5.17828 9.27493 5.26085 9.34099L5.41361 9.45659L7.29628 9.46485L9.17895 9.47723L9.34409 9.38227C9.79412 9.1263 9.8065 8.43681 9.36474 8.18083C9.22849 8.09826 9.13766 8.09413 7.71327 8.07349L6.21044 8.05285L5.90905 7.00004C5.7439 6.42203 5.57463 5.90181 5.53334 5.84401C5.43838 5.7119 5.13286 5.55501 4.96771 5.55501C4.89753 5.55501 4.75715 5.59629 4.65806 5.64584Z" fill="white"/>
<path d="M0.331041 6.4852C0.120479 6.58841 0.017263 6.76595 0.000748326 7.05495C-0.019895 7.41002 0.392971 13.6484 0.446644 13.7888C0.512702 13.9581 0.607661 14.053 0.79758 14.1397C0.946212 14.2099 1.08246 14.2182 2.04031 14.2182H3.12202L3.12952 15.7047C3.14191 15.7584 3.16255 16.9995 3.17907 17.206C3.19558 17.4083 3.21623 17.6064 3.22448 17.6436C3.241 17.7014 3.18733 17.7138 2.92309 17.7385C1.96937 17.8253 1.17254 18.1184 0.714258 18.5478C0.478925 18.7748 0.474796 18.7831 0.474796 19.0019C0.474796 19.2166 0.466539 19.2331 0.350936 19.2827C0.280749 19.3157 0.173404 19.4065 0.111474 19.4891C0.0165146 19.613 0 19.6749 0 19.9144C0 20.224 0.0660586 20.352 0.30965 20.5171C0.499568 20.6493 0.86289 20.6493 1.05694 20.5171C1.28401 20.3644 1.3831 20.1827 1.3831 19.9144C1.3831 19.6584 1.29227 19.4643 1.11474 19.3487C1.03217 19.2951 1.01152 19.2455 1.01152 19.1217C1.01152 18.9813 1.03217 18.9441 1.18905 18.8326C1.56063 18.556 2.26663 18.3289 2.92309 18.2753L3.2699 18.2464L3.29467 18.428C3.31119 18.5271 3.33183 18.7501 3.34834 18.9235L3.37312 19.2373L3.23274 19.3198C3.14604 19.3694 3.05108 19.4767 2.99741 19.5882C2.7662 20.0671 3.03869 20.5626 3.55891 20.6038C3.82314 20.6245 3.98416 20.5667 4.1493 20.3809C4.40941 20.0836 4.39702 19.6914 4.11215 19.4107L3.95939 19.2579L4.00893 18.7666C4.03783 18.4982 4.0626 18.2753 4.0626 18.267C4.07086 18.2381 4.4218 18.267 4.76035 18.3207C5.28881 18.4074 5.7471 18.5643 6.05674 18.7707C6.27969 18.9152 6.31685 18.9606 6.32924 19.0762C6.34162 19.1877 6.31272 19.2373 6.15583 19.39C6.03197 19.5139 5.96179 19.6212 5.94114 19.7244C5.84618 20.2281 6.14345 20.6121 6.6265 20.6121C7.04349 20.6121 7.32837 20.3313 7.32837 19.9144C7.32837 19.6419 7.23341 19.4602 7.01872 19.324C6.88248 19.2331 6.87422 19.2166 6.87422 19.006C6.87422 18.7872 6.86596 18.7707 6.65127 18.5643C6.22189 18.1473 5.33836 17.817 4.43418 17.7385L4.10389 17.7096L4.12866 17.4784C4.14517 17.3505 4.16995 17.1151 4.18233 16.9582L4.22437 14.2388L5.36801 14.2182C6.44559 14.1975 6.51577 14.1934 6.62725 14.1108C7.03186 13.8094 7.03599 13.2273 6.63138 12.9796C6.49926 12.9011 6.41669 12.897 4.09638 12.897H1.69763L1.67286 12.6575C1.63157 12.2653 1.40411 8.84991 1.40411 8.35886C1.24722 7.6136 0.892222 9.99685 1.01608 10.0299C1.48273 9.69119 1.14495 9.29362 1.01608 9.0138C0.871578 8.70002 0.797037 10.2839 1.01608 10.3686C0.945555 10.2684 0.706432 10.2488 1.01608 10.3686C0.912865 10.4181 1.41688 8.38851 1.40862 8.38025C1.40036 8.372 1.37146 8.03345 1.34256 7.62471C1.28476 6.8031 1.24348 6.68337 0.98337 6.50997C0.818223 6.39437 0.533345 6.38611 0.331041 6.4852Z" fill="white"/>
</svg>
