<svg width="13" height="20" viewBox="0 0 13 20" fill="none" xmlns="http://www.w3.org/2000/svg">
<path d="M5.21627 0.0292131C4.38303 0.168838 3.63987 0.88948 3.46421 1.72723C3.28405 2.592 3.6714 3.51532 4.41005 3.98824C5.60362 4.75843 7.23407 4.17291 7.64844 2.8217C7.76104 2.47039 7.76554 1.89387 7.66646 1.55157C7.36469 0.520151 6.28372 -0.150947 5.21627 0.0292131Z" fill="white"/>
<path d="M4.67588 4.92957C4.33808 5.03317 4.08135 5.26738 3.89219 5.64571C3.64897 6.14115 3.62645 6.56003 3.7931 7.70405C4.07235 9.60023 4.1309 10.9379 3.98227 11.9333C3.89669 12.5143 3.89219 12.7936 3.95975 13.0683C4.0183 13.3025 4.23449 13.5097 4.48221 13.5773C4.71642 13.6403 5.58569 13.6989 7.49089 13.7845C8.38269 13.825 9.1844 13.8745 9.26998 13.8881L9.42311 13.9241L9.72038 16.5319C9.98611 18.8605 10.0312 19.1668 10.1257 19.3649C10.2473 19.6036 10.4005 19.7478 10.6842 19.9009C10.8284 19.9775 10.9455 20 11.2067 20C11.6031 20 11.8192 19.9054 12.076 19.6217C12.2967 19.3784 12.3822 19.1532 12.3822 18.829C12.3868 18.4957 11.7202 12.6359 11.6571 12.3882C11.576 12.091 11.3373 11.8072 11.0446 11.6631C10.8013 11.546 10.7428 11.537 9.70236 11.4829C9.10783 11.4514 8.36917 11.4108 8.06741 11.3973L7.51792 11.3658L7.54044 11.1586C7.55395 11.0415 7.57196 10.9199 7.58548 10.8884C7.59899 10.8478 7.09904 10.8381 11.567 10.8381H9.08982L7.58548 10.8884L10.1257 10.8381H10.8464H11.567V10.3652V9.89223L10.7338 9.893L10.5987 10.1047C10.5131 10.2353 10.3915 10.3524 10.2654 10.4155L10.0672 10.5191H7.99084C5.9235 10.5191 5.91449 10.5191 5.73883 10.4155C5.38301 10.2128 5.34248 10.1227 4.87856 8.49225C4.64436 7.66351 4.45068 6.92035 4.45068 6.84828C4.45068 6.46544 4.71192 6.0781 5.05873 5.94298C5.49561 5.77633 6.02258 5.96099 6.23878 6.35284C6.29282 6.45193 6.42794 6.8663 6.54505 7.27616C6.65765 7.68603 6.79277 8.15445 6.84231 8.3211L6.93239 8.62737H7.24317C7.47738 8.62737 7.55845 8.60935 7.55845 8.56882C7.55845 8.42469 7.36928 7.48335 7.24317 7.00592C6.94591 5.87992 6.45497 5.25837 5.63524 4.98362C5.35149 4.88904 4.89658 4.86201 4.67588 4.92957Z" fill="white"/>
<path d="M5.08144 6.15914C4.96884 6.2177 4.83372 6.3303 4.77967 6.41137C4.586 6.70413 4.595 6.7807 5.0364 8.33458C5.25709 9.12729 5.46878 9.83892 5.50481 9.91999C5.54085 9.99656 5.64894 10.1182 5.73902 10.1902L5.90567 10.3163L7.9595 10.3254L10.0133 10.3389L10.1935 10.2353C10.6844 9.95603 10.6979 9.20386 10.216 8.92461C10.0674 8.83453 9.96829 8.83002 8.41441 8.8075L6.77495 8.78498L6.44615 7.63646C6.26599 7.0059 6.08133 6.43839 6.03629 6.37534C5.9327 6.23121 5.5994 6.06006 5.41924 6.06006C5.34267 6.06006 5.18953 6.1051 5.08144 6.15914Z" fill="white"/>
<path d="M0.361137 7.21762C0.131433 7.33022 0.0188324 7.5239 0.000816359 7.83918C-0.0217037 8.22652 0.428698 15.0321 0.48725 15.1852C0.559314 15.3699 0.662906 15.4735 0.870091 15.5681C1.03224 15.6446 1.18087 15.6536 2.2258 15.6536H3.40585L3.42837 15.7527C3.44188 15.8113 3.4644 16.0365 3.48242 16.2617C3.50043 16.4824 3.52295 16.6986 3.53196 16.7391C3.54998 16.8022 3.49143 16.8157 3.20317 16.8427C2.16274 16.9373 1.29347 17.2571 0.793523 17.7255C0.536794 17.9732 0.53229 17.9822 0.53229 18.2209C0.53229 18.4551 0.523282 18.4732 0.397169 18.5272C0.320601 18.5632 0.203497 18.6623 0.135937 18.7524C0.0323444 18.8875 0.0143284 18.9551 0.0143284 19.2163C0.0143284 19.5541 0.0863926 19.6937 0.352129 19.8739C0.559314 20.018 0.955667 20.018 1.16736 19.8739C1.41508 19.7072 1.52317 19.5091 1.52317 19.2163C1.52317 18.9371 1.42408 18.7254 1.23041 18.5993C1.14033 18.5407 1.11781 18.4867 1.11781 18.3515C1.11781 18.1984 1.14033 18.1579 1.31148 18.0363C1.71685 17.7345 2.48703 17.4868 3.20317 17.4282L3.58151 17.3967L3.60853 17.5949C3.62655 17.703 3.64907 17.9462 3.66708 18.1353L3.69411 18.4777L3.54097 18.5677C3.44639 18.6218 3.34279 18.7389 3.28424 18.8605C3.03202 19.383 3.32928 19.9234 3.89679 19.9685C4.18504 19.991 4.3607 19.9279 4.54086 19.7253C4.82461 19.401 4.8111 18.9731 4.50033 18.6668L4.33368 18.5002L4.38772 17.9642C4.41925 17.6714 4.44628 17.4282 4.44628 17.4192C4.45529 17.3877 4.83813 17.4192 5.20745 17.4778C5.78397 17.5723 6.28391 17.7435 6.62172 17.9687C6.86493 18.1263 6.90547 18.1759 6.91898 18.302C6.93249 18.4236 6.90096 18.4777 6.72981 18.6443C6.59469 18.7794 6.51812 18.8965 6.4956 19.0091C6.39201 19.5586 6.7163 19.9775 7.24327 19.9775C7.69817 19.9775 8.00895 19.6712 8.00895 19.2163C8.00895 18.919 7.90536 18.7209 7.67115 18.5722C7.52252 18.4732 7.51351 18.4551 7.51351 18.2254C7.51351 17.9867 7.5045 17.9687 7.27029 17.7435C6.80188 17.2886 5.83802 16.9283 4.85164 16.8427L4.49132 16.8112L4.51834 16.5589C4.53636 16.4193 4.56338 16.1626 4.57689 15.9914L4.60842 15.6762L5.85603 15.6536C7.03158 15.6311 7.10815 15.6266 7.22976 15.5365C7.67115 15.2077 7.67565 14.5727 7.23426 14.3024C7.09013 14.2169 7.00005 14.2124 4.4688 14.2124H1.85197L1.82494 13.9511C1.7799 13.5232 1.53176 9.79733 1.53176 9.26163C1.36061 8.44861 0.973337 11.0485 1.10846 11.0846C1.61754 10.7151 1.24904 10.2814 1.10846 9.97611C0.950817 9.6338 0.869498 11.3617 1.10846 11.4541C1.03152 11.3448 0.770657 11.3234 1.10846 11.4541C0.995857 11.5081 1.54569 9.29397 1.53668 9.28496C1.52768 9.27596 1.49615 8.90663 1.46462 8.46073C1.40156 7.56443 1.35652 7.43382 1.07277 7.24465C0.892611 7.11853 0.581834 7.10953 0.361137 7.21762Z" fill="white"/>
</svg>
