<svg width="10" height="21" viewBox="0 0 10 21" fill="none" xmlns="http://www.w3.org/2000/svg">
<path d="M2.10196 0.0364134C1.08423 0.230069 0.359057 1.30959 0.573314 2.32319C0.758729 3.21731 1.4427 3.83535 2.34506 3.926C2.65408 3.95484 3.09907 3.86832 3.39162 3.71998C3.86546 3.48101 4.26925 2.97421 4.40934 2.43856C4.76781 1.05825 3.52759 -0.235528 2.10196 0.0364134Z" fill="white"/>
<path d="M1.84591 4.33391C1.28966 4.48636 0.782862 4.88191 0.527402 5.36399C0.362589 5.68126 0.25546 6.06445 0.115369 6.86379C0.0164813 7.42415 0.00412033 7.61781 0 8.37183C0 9.26594 0.0288423 9.57497 0.210137 10.4732C0.366709 11.2561 0.646891 11.7505 1.07541 12.0018L1.2567 12.109L1.26494 16.1304L1.2773 20.156L1.38855 20.3496C1.76762 20.9924 2.59581 21.1078 3.11085 20.5886C3.46519 20.2384 3.44047 20.638 3.44047 14.8737V9.79334H3.20561C2.83478 9.79334 2.66173 9.72742 2.45159 9.51316C2.26618 9.31951 2.26206 9.30714 1.77586 7.75378C1.18665 5.87079 1.19902 5.912 1.2567 5.67302C1.42563 4.99728 2.2497 4.77066 2.72354 5.26922C2.86363 5.42168 2.91307 5.52468 3.04492 5.94084C3.12733 6.21278 3.25094 6.59185 3.31686 6.7855L3.43223 7.13573L3.43635 6.43528C3.44047 5.17446 3.2633 4.61409 2.78122 4.36275C2.56696 4.25562 2.18789 4.24326 1.84591 4.33391Z" fill="white"/>
<path d="M1.74689 5.27341C1.53676 5.4135 1.42139 5.61128 1.42139 5.83378C1.42139 6.06039 2.36494 9.13828 2.48443 9.29485C2.59568 9.4473 2.74813 9.54619 2.92943 9.58739C3.15604 9.64096 6.3905 9.63684 6.58004 9.58739C7.1816 9.41846 7.30109 8.67268 6.78193 8.32245C6.64184 8.22769 6.6336 8.22769 5.12144 8.22769H3.60516L3.55984 8.13292C3.53923 8.08347 3.34558 7.49015 3.13544 6.81029C2.92119 6.13456 2.71105 5.53299 2.66985 5.47119C2.44735 5.1704 2.0312 5.08388 1.74689 5.27341Z" fill="white"/>
<path d="M7.07445 9.46373L6.93848 9.62854H7.92735H8.92035V9.46373V9.29891H8.06745H7.21042L7.07445 9.46373Z" fill="white"/>
<path d="M4.49902 10.7029V11.1355H6.70047H8.90192V16.0181V20.9007H9.12107H9.34022V16.0181V11.1355L9.66496 11.1273L9.98771 11.1149L9.99368 10.6905L9.99966 10.2703H7.24835H4.49902V10.7029Z" fill="white"/>
</svg>
